<svg xmlns="http://www.w3.org/2000/svg" fill="#000000" class="bi bi-basket-fill" viewBox="0 0 16 16" id="Basket-Fill--Streamline-Bootstrap.svg" height="16" width="16"><desc>Basket Fill Streamline Icon: https://streamlinehq.com</desc><path d="M5.071 1.243a0.5 0.5 0 0 1 0.858 0.514L3.383 6h9.234L10.07 1.757a0.5 0.5 0 1 1 0.858 -0.514L13.783 6H15.5a0.5 0.5 0 0 1 0.5 0.5v2a0.5 0.5 0 0 1 -0.5 0.5H15v5a2 2 0 0 1 -2 2H3a2 2 0 0 1 -2 -2V9H0.5a0.5 0.5 0 0 1 -0.5 -0.5v-2A0.5 0.5 0 0 1 0.5 6h1.717zM3.5 10.5a0.5 0.5 0 1 0 -1 0v3a0.5 0.5 0 0 0 1 0zm2.5 0a0.5 0.5 0 1 0 -1 0v3a0.5 0.5 0 0 0 1 0zm2.5 0a0.5 0.5 0 1 0 -1 0v3a0.5 0.5 0 0 0 1 0zm2.5 0a0.5 0.5 0 1 0 -1 0v3a0.5 0.5 0 0 0 1 0zm2.5 0a0.5 0.5 0 1 0 -1 0v3a0.5 0.5 0 0 0 1 0z" stroke-width="1"></path></svg>