<svg xmlns="http://www.w3.org/2000/svg" fill="#000000" class="bi bi-basket2" viewBox="0 0 16 16" id="Basket2--Streamline-Bootstrap.svg" height="16" width="16"><desc>Basket2 Streamline Icon: https://streamlinehq.com</desc><path d="M4 10a1 1 0 0 1 2 0v2a1 1 0 0 1 -2 0zm3 0a1 1 0 0 1 2 0v2a1 1 0 0 1 -2 0zm3 0a1 1 0 1 1 2 0v2a1 1 0 0 1 -2 0z" stroke-width="1"></path><path d="M5.757 1.071a0.5 0.5 0 0 1 0.172 0.686L3.383 6h9.234L10.07 1.757a0.5 0.5 0 1 1 0.858 -0.514L13.783 6H15.5a0.5 0.5 0 0 1 0.5 0.5v1a0.5 0.5 0 0 1 -0.5 0.5h-0.623l-1.844 6.456a0.75 0.75 0 0 1 -0.722 0.544H3.69a0.75 0.75 0 0 1 -0.722 -0.544L1.123 8H0.5a0.5 0.5 0 0 1 -0.5 -0.5v-1A0.5 0.5 0 0 1 0.5 6h1.717L5.07 1.243a0.5 0.5 0 0 1 0.686 -0.172zM2.163 8l1.714 6h8.246l1.714 -6z" stroke-width="1"></path></svg>