<svg xmlns="http://www.w3.org/2000/svg" fill="#000000" class="bi bi-box-arrow-left" viewBox="0 0 16 16" id="Box-Arrow-Left--Streamline-Bootstrap.svg" height="16" width="16"><desc>Box Arrow Left Streamline Icon: https://streamlinehq.com</desc><path fill-rule="evenodd" d="M6 12.5a0.5 0.5 0 0 0 0.5 0.5h8a0.5 0.5 0 0 0 0.5 -0.5v-9a0.5 0.5 0 0 0 -0.5 -0.5h-8a0.5 0.5 0 0 0 -0.5 0.5v2a0.5 0.5 0 0 1 -1 0v-2A1.5 1.5 0 0 1 6.5 2h8A1.5 1.5 0 0 1 16 3.5v9a1.5 1.5 0 0 1 -1.5 1.5h-8A1.5 1.5 0 0 1 5 12.5v-2a0.5 0.5 0 0 1 1 0z" stroke-width="1"></path><path fill-rule="evenodd" d="M0.146 8.354a0.5 0.5 0 0 1 0 -0.708l3 -3a0.5 0.5 0 1 1 0.708 0.708L1.707 7.5H10.5a0.5 0.5 0 0 1 0 1H1.707l2.147 2.146a0.5 0.5 0 0 1 -0.708 0.708z" stroke-width="1"></path></svg>