<svg xmlns="http://www.w3.org/2000/svg" fill="#000000" class="bi bi-house-door" viewBox="0 0 16 16" id="House-Door--Streamline-Bootstrap.svg" height="16" width="16"><desc>House Door Streamline Icon: https://streamlinehq.com</desc><path d="M8.354 1.146a0.5 0.5 0 0 0 -0.708 0l-6 6A0.5 0.5 0 0 0 1.5 7.5v7a0.5 0.5 0 0 0 0.5 0.5h4.5a0.5 0.5 0 0 0 0.5 -0.5v-4h2v4a0.5 0.5 0 0 0 0.5 0.5H14a0.5 0.5 0 0 0 0.5 -0.5v-7a0.5 0.5 0 0 0 -0.146 -0.354L13 5.793V2.5a0.5 0.5 0 0 0 -0.5 -0.5h-1a0.5 0.5 0 0 0 -0.5 0.5v1.293zM2.5 14V7.707l5.5 -5.5 5.5 5.5V14H10v-4a0.5 0.5 0 0 0 -0.5 -0.5h-3a0.5 0.5 0 0 0 -0.5 0.5v4z" stroke-width="1"></path></svg>