<svg xmlns="http://www.w3.org/2000/svg" fill="#000000" class="bi bi-person-fill-add" viewBox="0 0 16 16" id="Person-Fill-Add--Streamline-Bootstrap.svg" height="16" width="16"><desc>Person Fill Add Streamline Icon: https://streamlinehq.com</desc><path d="M12.5 16a3.5 3.5 0 1 0 0 -7 3.5 3.5 0 0 0 0 7m0.5 -5v1h1a0.5 0.5 0 0 1 0 1h-1v1a0.5 0.5 0 0 1 -1 0v-1h-1a0.5 0.5 0 0 1 0 -1h1v-1a0.5 0.5 0 0 1 1 0m-2 -6a3 3 0 1 1 -6 0 3 3 0 0 1 6 0" stroke-width="1"></path><path d="M2 13c0 1 1 1 1 1h5.256A4.5 4.5 0 0 1 8 12.5a4.5 4.5 0 0 1 1.544 -3.393Q8.844 9.002 8 9c-5 0 -6 3 -6 4" stroke-width="1"></path></svg>